<?xml version="1.0" standalone="no"?>
<!DOCTYPE svg PUBLIC "-//W3C//DTD SVG 20010904//EN"
 "http://www.w3.org/TR/2001/REC-SVG-20010904/DTD/svg10.dtd">
<svg version="1.0" xmlns="http://www.w3.org/2000/svg"
 width="1016.000000pt" height="322.000000pt" viewBox="0 0 1016.000000 322.000000"
 preserveAspectRatio="xMidYMid meet">

<g transform="translate(0.000000,322.000000) scale(0.100000,-0.100000)"
fill="#000000" stroke="none">
<path d="M5013 3199 c-38 -5 -63 -16 -95 -42 -37 -31 -48 -48 -73 -123 -48
-142 -51 -147 -81 -171 -35 -28 -55 -29 -136 -3 -80 25 -165 25 -273 0 -47
-11 -98 -20 -113 -20 -15 0 -52 -7 -82 -15 -67 -18 -162 -37 -340 -66 -153
-25 -307 -65 -394 -104 -55 -24 -64 -25 -104 -14 -28 8 -76 10 -140 6 -82 -6
-99 -10 -111 -27 -7 -11 -22 -20 -32 -20 -20 0 -24 -22 -13 -78 5 -26 13 -32
58 -45 28 -9 68 -18 90 -22 29 -5 36 -9 27 -18 -16 -16 -14 -57 3 -57 8 0 16
6 19 14 3 8 23 19 44 26 21 6 50 25 65 42 34 39 121 61 351 88 97 12 190 29
222 41 33 12 64 18 76 14 12 -4 63 -10 113 -14 l91 -6 15 -43 c14 -42 16 -43
50 -37 19 3 43 8 53 11 21 6 21 -3 3 -47 -7 -19 -16 -48 -19 -66 l-6 -32 123
-3 122 -3 -50 -242 -51 -243 -116 0 -116 0 -34 -66 c-20 -40 -51 -80 -76 -101
-59 -48 -74 -88 -84 -219 -9 -111 -10 -114 -58 -191 -126 -203 -142 -243 -187
-453 -23 -107 -41 -196 -40 -197 0 0 36 2 78 7 l78 7 76 69 c116 103 333 321
388 389 26 33 73 86 103 118 l54 59 72 -7 c42 -3 134 0 222 9 191 20 265 21
265 2 0 -7 -11 -48 -25 -90 -21 -64 -25 -96 -25 -194 0 -220 -37 -397 -98
-467 -31 -35 -47 -83 -40 -126 3 -20 19 -29 118 -65 63 -22 144 -56 179 -75
60 -32 71 -34 156 -34 71 1 98 5 119 18 39 26 30 50 -23 59 -66 11 -125 52
-185 126 -77 96 -95 138 -86 199 13 80 29 131 80 253 27 63 60 156 75 205 15
50 36 108 46 130 30 65 52 169 45 209 -9 48 -83 111 -156 132 -30 9 -91 31
-135 50 -76 32 -381 114 -424 114 -11 0 -22 4 -25 9 -7 11 61 141 118 226 70
105 269 345 285 345 9 0 29 -7 45 -15 15 -8 38 -12 51 -9 12 3 40 1 61 -5 22
-6 109 -16 194 -21 85 -6 173 -12 195 -14 39 -5 41 -4 170 127 134 136 287
335 306 399 9 30 5 123 -7 191 -3 15 -12 27 -20 27 -8 0 -14 9 -14 20 0 54
-102 -9 -115 -71 -7 -29 -19 -37 -30 -19 -6 9 -45 15 -45 6 0 -2 7 -17 15 -32
8 -16 15 -40 15 -54 0 -14 7 -34 15 -44 27 -36 18 -65 -42 -128 -32 -33 -112
-98 -177 -145 l-119 -85 -76 25 c-42 14 -107 30 -144 37 -47 9 -77 20 -95 37
-15 14 -54 39 -87 56 -37 18 -54 32 -45 35 8 3 21 10 29 16 7 5 23 10 35 11
18 0 21 7 24 47 2 34 8 51 22 58 26 14 53 96 39 122 -6 10 -8 24 -6 31 2 7 10
0 17 -15 7 -16 16 -28 20 -28 4 0 19 17 34 38 27 40 36 105 15 118 -6 3 -9 15
-6 25 4 14 -7 29 -37 54 -24 19 -47 35 -52 35 -5 0 -25 10 -44 22 -38 24 -87
29 -177 17z"/>
<path d="M2771 588 c-70 -183 -71 -186 -157 -305 -12 -16 -16 -48 -18 -115 -1
-109 14 -158 49 -158 27 0 39 13 55 64 8 24 40 68 87 117 61 63 86 82 136 102
50 18 61 27 59 43 -4 32 166 126 318 175 220 70 223 69 -95 67 -240 -1 -285 2
-317 16 -56 24 -106 21 -117 -6z"/>
</g>
</svg>
